<?xml version="1.0" encoding="utf-8"?>
<!-- Generator: Adobe Illustrator 21.0.2, SVG Export Plug-In . SVG Version: 6.00 Build 0)  -->
<svg version="1.1" id="Camada_1" xmlns="http://www.w3.org/2000/svg" xmlns:xlink="http://www.w3.org/1999/xlink" x="0px" y="0px"
	 viewBox="0 0 42.4 38.9" style="enable-background:new 0 0 42.4 38.9;" xml:space="preserve">
<style type="text/css">
	.st0{fill:#00A3D3;}
	.st1{fill-rule:evenodd;clip-rule:evenodd;fill:#00A3D3;}
</style>
<path class="st0" d="M34.1,12.2V6.5h-0.7l-5,0l0,5.7L34.1,12.2z M31.5,36.2H10.9c-3.6,0-6.5-2.9-6.5-6.5V9.1c0-3.6,2.9-6.5,6.5-6.5
	h20.6c3.6,0,6.5,2.9,6.5,6.5V16v13.8C38,33.3,35.1,36.2,31.5,36.2z M15.3,19.4c0,3.3,2.7,5.9,5.9,5.9c3.3,0,5.9-2.6,5.9-5.9
	c0-1.3-0.4-2.5-1.1-3.4c-1.1-1.5-2.8-2.5-4.8-2.5c-2,0-3.7,1-4.8,2.5C15.7,16.9,15.3,18.1,15.3,19.4z M21.2,28.6
	c-5.1,0-9.2-4.1-9.2-9.2c0-1.2,0.2-2.4,0.7-3.4h-5v13.8c0,1.8,1.4,3.2,3.2,3.2h20.6c1.8,0,3.2-1.4,3.2-3.2V16h-5
	c0.4,1.1,0.7,2.2,0.7,3.4C30.4,24.5,26.3,28.6,21.2,28.6z"/>
</svg>
