<?xml version="1.0" encoding="utf-8"?>
<!-- Generator: Adobe Illustrator 21.0.2, SVG Export Plug-In . SVG Version: 6.00 Build 0)  -->
<svg version="1.1" id="Camada_1" xmlns="http://www.w3.org/2000/svg" xmlns:xlink="http://www.w3.org/1999/xlink" x="0px" y="0px"
	 viewBox="0 0 42.4 38.9" style="enable-background:new 0 0 42.4 38.9;" xml:space="preserve">
<style type="text/css">
	.st0{fill:#00A3D3;}
	.st1{fill-rule:evenodd;clip-rule:evenodd;fill:#00A3D3;}
</style>
<g>
	<path class="st0" d="M40,23.5v13.9h-8V24.4c0-3.2-1.2-5.5-4.1-5.5c-2.2,0-3.5,1.5-4.1,2.9c-0.2,0.5-0.3,1.2-0.3,2v13.5h-8
		c0,0,0.1-21.9,0-24.2h8v3.4c0,0,0,0.1-0.1,0.1h0.1v-0.1c1.1-1.6,3-4,7.2-4C36,12.6,40,16.1,40,23.5L40,23.5z M7,1.5
		c-2.7,0-4.5,1.8-4.5,4.2c0,2.3,1.7,4.2,4.4,4.2H7c2.8,0,4.5-1.9,4.5-4.2C11.5,3.3,9.8,1.5,7,1.5L7,1.5z M2.9,37.3h8V13.2h-8V37.3z
		 M2.9,37.3"/>
</g>
</svg>
