<?xml version="1.0" encoding="utf-8"?>
<!-- Generator: Adobe Illustrator 21.0.2, SVG Export Plug-In . SVG Version: 6.00 Build 0)  -->
<svg version="1.1" id="Camada_1" xmlns="http://www.w3.org/2000/svg" xmlns:xlink="http://www.w3.org/1999/xlink" x="0px" y="0px"
	 viewBox="0 0 42.4 38.9" style="enable-background:new 0 0 42.4 38.9;" xml:space="preserve">
<style type="text/css">
	.st0{fill:#00A3D3;}
	.st1{fill-rule:evenodd;clip-rule:evenodd;fill:#00A3D3;}
</style>
<g>
	<path class="st0" d="M32,28.1H30l0-1.2c0-0.5,0.4-1,1-1h0.1c0.5,0,1,0.4,1,1L32,28.1z M24.3,25.6c-0.5,0-0.9,0.4-0.9,0.8v5.8
		c0,0.4,0.4,0.8,0.9,0.8c0.5,0,1-0.3,1-0.8v-5.8C25.3,25.9,24.8,25.6,24.3,25.6L24.3,25.6z M36.8,22.3v11.1c0,2.7-2.3,4.8-5.1,4.8
		h-21c-2.8,0-5.1-2.2-5.1-4.8V22.3c0-2.7,2.3-4.8,5.1-4.8h21C34.5,17.5,36.8,19.7,36.8,22.3L36.8,22.3z M12.1,34.6l0-11.6l2.6,0
		v-1.7l-6.9,0v1.7l2.2,0v11.7H12.1z M19.9,24.6h-2.2v6.2c0,0.9,0.1,1.3,0,1.5c-0.2,0.5-1,1-1.3,0.1c-0.1-0.2,0-0.7,0-1.5l0-6.3h-2.2
		l0,6.2c0,0.9,0,1.6,0,2c0.1,0.6,0,1.2,0.6,1.6c1,0.7,2.8-0.1,3.3-1.1l0,1.3l1.7,0L19.9,24.6z M26.9,31.8l0-5.2c0-2-1.5-3.2-3.5-1.6
		l0-3.8l-2.2,0l0,13.3l1.8,0l0.2-0.8C25.4,35.7,26.9,34.3,26.9,31.8L26.9,31.8z M33.7,31.1l-1.6,0c0,0.1,0,0.1,0,0.2v0.9
		c0,0.5-0.4,0.9-0.9,0.9h-0.3c-0.5,0-0.9-0.4-0.9-0.9v-2.4h3.7v-1.4c0-1,0-2.1-0.1-2.6c-0.3-1.9-2.9-2.1-4.2-1.2
		c-0.4,0.3-0.7,0.7-0.9,1.2c-0.2,0.5-0.3,1.3-0.3,2.2v3.1C28.2,36.2,34.4,35.5,33.7,31.1L33.7,31.1z M25.3,14.3
		c0.1,0.3,0.3,0.5,0.5,0.7c0.2,0.2,0.5,0.2,0.9,0.2c0.3,0,0.6-0.1,0.8-0.3c0.2-0.2,0.4-0.4,0.6-0.8l0,0.9h2.4V4.8h-1.9v8
		c0,0.4-0.4,0.8-0.8,0.8c-0.4,0-0.8-0.4-0.8-0.8v-8h-2v6.9c0,0.9,0,1.5,0,1.8C25.1,13.8,25.2,14.1,25.3,14.3L25.3,14.3z M18,8.5
		c0-1,0.1-1.8,0.2-2.3c0.2-0.6,0.5-1,0.9-1.3c0.4-0.3,1-0.5,1.6-0.5c0.6,0,1,0.1,1.4,0.3c0.4,0.2,0.7,0.5,0.9,0.8
		c0.2,0.3,0.4,0.7,0.4,1.1c0.1,0.4,0.1,0.9,0.1,1.7v2.6c0,1,0,1.7-0.1,2.1c-0.1,0.4-0.2,0.9-0.5,1.3c-0.2,0.4-0.6,0.7-0.9,0.9
		c-0.4,0.2-0.8,0.3-1.3,0.3c-0.6,0-1-0.1-1.4-0.2c-0.4-0.2-0.7-0.4-0.9-0.7c-0.2-0.3-0.4-0.7-0.5-1.2c-0.1-0.5-0.1-1.1-0.1-2L18,8.5
		z M19.9,12.6c0,0.6,0.4,1.1,1,1.1c0.5,0,1-0.5,1-1.1V7.1c0-0.6-0.4-1.1-1-1.1c-0.5,0-1,0.5-1,1.1V12.6z M13.2,15.4h2.3l0-7.9
		l2.7-6.8h-2.5l-1.4,5l-1.5-5h-2.5l2.9,6.8L13.2,15.4z M13.2,15.4"/>
</g>
</svg>
