<?xml version="1.0" encoding="utf-8"?>
<!-- Generator: Adobe Illustrator 21.0.2, SVG Export Plug-In . SVG Version: 6.00 Build 0)  -->
<svg version="1.1" id="Camada_1" xmlns="http://www.w3.org/2000/svg" xmlns:xlink="http://www.w3.org/1999/xlink" x="0px" y="0px"
	 viewBox="0 0 42.4 38.9" style="enable-background:new 0 0 42.4 38.9;" xml:space="preserve">
<style type="text/css">
	.st0{fill:#00A3D3;}
	.st1{fill-rule:evenodd;clip-rule:evenodd;fill:#00A3D3;}
</style>
<g>
	<g>
		<path class="st0" d="M39.4,7.5c-0.8,0.4-1.7,0.7-2.6,0.9c1-0.9,1.7-2.1,2.1-3.4l0,0c0.1-0.4-0.3-0.7-0.6-0.5l0,0
			c-1.2,0.7-2.6,1.3-4,1.6c-0.1,0-0.2,0-0.2,0c-0.3,0-0.5-0.1-0.7-0.3c-1.5-1.3-3.4-2-5.4-2c-0.9,0-1.7,0.1-2.6,0.4
			c-2.6,0.8-4.6,3-5.3,5.6c-0.2,1-0.3,2-0.2,3c0,0.1,0,0.2-0.1,0.2c-0.1,0.1-0.1,0.1-0.2,0.1c0,0,0,0,0,0C13.9,12.6,8.8,9.9,5.1,5.4
			l0,0C4.9,5.2,4.6,5.2,4.4,5.4l0,0C3.7,6.7,3.3,8.1,3.3,9.5c0,2.2,0.9,4.3,2.4,5.8c-0.6-0.2-1.3-0.4-1.8-0.7l0,0
			c-0.3-0.2-0.6,0-0.6,0.4l0,0c0,3.3,1.9,6.2,4.7,7.5c-0.1,0-0.1,0-0.2,0c-0.5,0-0.9,0-1.4-0.1l0,0c-0.3-0.1-0.6,0.2-0.5,0.5l0,0
			c0.9,2.9,3.4,5,6.4,5.5C9.9,30,7,30.9,4,30.9l-0.9,0c-0.3,0-0.5,0.2-0.6,0.5c-0.1,0.3,0.1,0.6,0.3,0.7c3.4,2,7.2,3,11.2,3
			c3.4,0,6.6-0.7,9.5-2c2.7-1.2,5-3,7-5.2c1.8-2.1,3.3-4.5,4.3-7.2c1-2.5,1.5-5.2,1.5-7.8v-0.1c0-0.4,0.2-0.8,0.5-1.1
			c1.2-1,2.3-2.2,3.2-3.5l0,0C40.1,7.7,39.8,7.3,39.4,7.5L39.4,7.5L39.4,7.5z"/>
	</g>
</g>
</svg>
