<?xml version="1.0" encoding="utf-8"?>
<!-- Generator: Adobe Illustrator 21.0.2, SVG Export Plug-In . SVG Version: 6.00 Build 0)  -->
<svg version="1.1" id="Camada_1" xmlns="http://www.w3.org/2000/svg" xmlns:xlink="http://www.w3.org/1999/xlink" x="0px" y="0px"
	 viewBox="0 0 42.4 38.9" style="enable-background:new 0 0 42.4 38.9;" xml:space="preserve">
<style type="text/css">
	.st0{fill:#00A3D3;}
	.st1{fill-rule:evenodd;clip-rule:evenodd;fill:#00A3D3;}
</style>
<g>
	<g>
		<path class="st1" d="M40.3,17.3H7.6l14-13.5c0.9-0.9,0.9-2.3,0-3.1c-0.9-0.9-2.3-0.9-3.2,0L0.7,17.8c-0.4,0.4-0.7,1-0.7,1.6
			c0,0,0,0.1,0,0.1c0,0.1,0,0.3,0,0.4c0.1,0.4,0.3,0.9,0.6,1.2l17.8,17.1c0.9,0.9,2.3,0.9,3.2,0c0.9-0.9,0.9-2.3,0-3.1l-14-13.5
			h32.6c1.2,0,2.1-1,2.1-2.1C42.4,18.3,41.5,17.3,40.3,17.3z"/>
	</g>
</g>
</svg>
