<?xml version="1.0" encoding="utf-8"?>
<!-- Generator: Adobe Illustrator 21.0.2, SVG Export Plug-In . SVG Version: 6.00 Build 0)  -->
<svg version="1.1" id="Camada_1" xmlns="http://www.w3.org/2000/svg" xmlns:xlink="http://www.w3.org/1999/xlink" x="0px" y="0px"
	 viewBox="0 0 138.1 30.8" style="enable-background:new 0 0 138.1 30.8;" xml:space="preserve">
<style type="text/css">
	.st0{fill:url(#SVGID_1_);}
	.st1{fill:url(#SVGID_2_);}
	.st2{fill:url(#SVGID_3_);}
	.st3{fill:url(#SVGID_4_);}
	.st4{fill:url(#SVGID_5_);}
</style>
<g>
	<linearGradient id="SVGID_1_" gradientUnits="userSpaceOnUse" x1="2.4419" y1="15.4066" x2="138.5007" y2="15.4066">
		<stop  offset="0" style="stop-color:#00A3D3"/>
		<stop  offset="1" style="stop-color:#00E4B1"/>
	</linearGradient>
	<path class="st0" d="M64.5,21.3L64.5,21.3c1.4,1.4,1.4,3.6,0,5c-2.8,2.8-6.6,4.5-10.9,4.5c-8.8,0-15.9-7.4-15.4-16.4
		C38.8,6.7,45,0.5,52.7,0c4.6-0.3,8.8,1.5,11.8,4.5c1.4,1.4,1.4,3.6,0,5l0,0c-1.4,1.4-3.5,1.3-4.9,0C58,8.1,56,7.2,53.7,7.2
		c-4.8,0-8.3,3.7-8.1,8.5c0.2,4.2,3.4,7.6,7.6,7.8c2.5,0.2,4.8-0.6,6.4-2.2C60.9,20,63.2,20,64.5,21.3z"/>
	<g>
		<linearGradient id="SVGID_2_" gradientUnits="userSpaceOnUse" x1="2.4419" y1="15.4072" x2="138.5007" y2="15.4072">
			<stop  offset="0" style="stop-color:#00A3D3"/>
			<stop  offset="1" style="stop-color:#00E4B1"/>
		</linearGradient>
		<path class="st1" d="M84.4,0C75.9,0,69,6.9,69,15.4c0,8.5,6.9,15.4,15.4,15.4c8.5,0,15.4-6.9,15.4-15.4C99.8,6.9,92.9,0,84.4,0z
			 M84.4,23.6c-4.5,0-8.1-3.6-8.1-8.1c0-4.5,3.6-8.1,8.1-8.1c4.5,0,8.1,3.6,8.1,8.1C92.5,19.9,88.9,23.6,84.4,23.6z"/>
	</g>
	<linearGradient id="SVGID_3_" gradientUnits="userSpaceOnUse" x1="2.4419" y1="15.4066" x2="138.5007" y2="15.4066">
		<stop  offset="0" style="stop-color:#00A3D3"/>
		<stop  offset="1" style="stop-color:#00E4B1"/>
	</linearGradient>
	<path class="st2" d="M24.5,29.7L24.5,29.7c-1.4-1.4-1.4-3.8,0.1-5.2c1.8-1.8,2.9-4.3,2.9-7.1c0-5.8-4.8-10.5-10.6-10.2
		c-5.2,0.3-9.4,4.6-9.6,9.8c-0.1,2.9,1,5.6,2.9,7.5c1.4,1.4,1.5,3.8,0.1,5.2l0,0c-1.4,1.4-3.7,1.5-5.1,0.1C1.7,26.4-0.3,21.6,0,16.2
		C0.6,7.6,7.6,0.6,16.3,0c10.1-0.6,18.5,7.4,18.5,17.4c0,4.8-2,9.2-5.1,12.3C28.3,31.1,26,31.2,24.5,29.7z"/>
	<linearGradient id="SVGID_4_" gradientUnits="userSpaceOnUse" x1="2.4419" y1="15.4066" x2="138.5007" y2="15.4066">
		<stop  offset="0" style="stop-color:#00A3D3"/>
		<stop  offset="1" style="stop-color:#00E4B1"/>
	</linearGradient>
	<path class="st3" d="M127.8,29.7L127.8,29.7c-1.4-1.4-1.4-3.8,0.1-5.2c1.8-1.8,2.9-4.3,2.9-7.1c0-5.8-4.8-10.5-10.6-10.2
		c-5.2,0.3-9.4,4.6-9.6,9.8c-0.1,2.9,1,5.6,2.9,7.5c1.4,1.4,1.5,3.8,0.1,5.2v0c-1.4,1.4-3.7,1.5-5.1,0.1c-3.5-3.4-5.5-8.3-5.2-13.6
		c0.6-8.6,7.6-15.7,16.3-16.2c10.1-0.6,18.5,7.4,18.5,17.4c0,4.8-2,9.2-5.1,12.3C131.5,31.1,129.2,31.2,127.8,29.7z"/>
	<linearGradient id="SVGID_5_" gradientUnits="userSpaceOnUse" x1="2.4419" y1="15.3916" x2="138.5007" y2="15.3916">
		<stop  offset="0" style="stop-color:#00A3D3"/>
		<stop  offset="1" style="stop-color:#00E4B1"/>
	</linearGradient>
	<circle class="st4" cx="53.5" cy="15.4" r="3.6"/>
</g>
</svg>
